<svg width="50" height="50" viewBox="0 0 50 50" fill="none" xmlns="http://www.w3.org/2000/svg">
<g clip-path="url(#clip0_1857_191)">
<path d="M8.33333 27.0837C9.48393 27.0837 10.4167 26.1509 10.4167 25.0003C10.4167 23.8497 9.48393 22.917 8.33333 22.917C7.18274 22.917 6.25 23.8497 6.25 25.0003C6.25 26.1509 7.18274 27.0837 8.33333 27.0837Z" fill="black"/>
<path d="M41.7923 22.917H16.5423C15.4608 22.917 14.584 23.7938 14.584 24.8753V25.1253C14.584 26.2069 15.4608 27.0837 16.5423 27.0837H41.7923C42.8739 27.0837 43.7507 26.2069 43.7507 25.1253V24.8753C43.7507 23.7938 42.8739 22.917 41.7923 22.917Z" fill="black"/>
<path d="M41.7917 33.333H8.20833C7.12678 33.333 6.25 34.2098 6.25 35.2913V35.5413C6.25 36.6229 7.12678 37.4997 8.20833 37.4997H41.7917C42.8732 37.4997 43.75 36.6229 43.75 35.5413V35.2913C43.75 34.2098 42.8732 33.333 41.7917 33.333Z" fill="black"/>
<path d="M41.7917 12.5H8.20833C7.12678 12.5 6.25 13.3768 6.25 14.4583V14.7083C6.25 15.7899 7.12678 16.6667 8.20833 16.6667H41.7917C42.8732 16.6667 43.75 15.7899 43.75 14.7083V14.4583C43.75 13.3768 42.8732 12.5 41.7917 12.5Z" fill="black"/>
</g>
<defs>
<clipPath id="clip0_1857_191">
<rect width="50" height="50" fill="white"/>
</clipPath>
</defs>
</svg>
