<svg width="30" height="30" viewBox="0 0 30 30" fill="none" xmlns="http://www.w3.org/2000/svg">
<g clip-path="url(#clip0_1875_63)">
<path d="M22.5009 20V13.75C22.5009 9.9125 20.4509 6.7 16.8759 5.85V5C16.8759 3.9625 16.0259 3.125 14.9884 3.125C13.9509 3.125 13.1259 3.9625 13.1259 5V5.85C9.53845 6.7 7.50095 9.9 7.50095 13.75V20L5.87595 21.6125C5.08845 22.4 5.63845 23.75 6.75095 23.75H23.2134C24.3259 23.75 24.8884 22.4 24.1009 21.6125L22.5009 20ZM14.9884 27.5C16.3634 27.5 17.4884 26.375 17.4884 25H12.4884C12.4884 26.375 13.6009 27.5 14.9884 27.5ZM8.46345 5.9125C8.98845 5.4375 9.00095 4.625 8.50095 4.125C8.02595 3.65 7.25095 3.6375 6.76345 4.1C4.62595 6.05 3.15095 8.7 2.67595 11.675C2.56345 12.4375 3.15095 13.125 3.92595 13.125C4.52595 13.125 5.05095 12.6875 5.15095 12.0875C5.52595 9.6625 6.72595 7.5 8.46345 5.9125ZM23.2509 4.1C22.7509 3.6375 21.9759 3.65 21.5009 4.125C21.0009 4.625 21.0259 5.425 21.5384 5.9C23.2634 7.4875 24.4759 9.65 24.8509 12.075C24.9384 12.675 25.4634 13.1125 26.0759 13.1125C26.8384 13.1125 27.4384 12.425 27.3134 11.6625C26.8384 8.7 25.3759 6.0625 23.2509 4.1Z" fill="#D00303"/>
</g>
<defs>
<clipPath id="clip0_1875_63">
<rect width="30" height="30" fill="white"/>
</clipPath>
</defs>
</svg>
