<svg width="66" height="66" viewBox="0 0 66 66" fill="none" xmlns="http://www.w3.org/2000/svg">
<circle cx="33" cy="33" r="33" fill="#5A90BF"/>
<path d="M45.7487 35.834C45.373 35.834 45.0126 35.9832 44.747 36.2489C44.4813 36.5146 44.332 36.8749 44.332 37.2507V42.9173C44.332 43.293 44.1828 43.6534 43.9171 43.9191C43.6514 44.1847 43.2911 44.334 42.9154 44.334H23.082C22.7063 44.334 22.346 44.1847 22.0803 43.9191C21.8146 43.6534 21.6654 43.293 21.6654 42.9173V37.2507C21.6654 36.8749 21.5161 36.5146 21.2504 36.2489C20.9848 35.9832 20.6244 35.834 20.2487 35.834C19.873 35.834 19.5126 35.9832 19.247 36.2489C18.9813 36.5146 18.832 36.8749 18.832 37.2507V42.9173C18.832 44.0445 19.2798 45.1255 20.0768 45.9225C20.8739 46.7196 21.9549 47.1673 23.082 47.1673H42.9154C44.0425 47.1673 45.1235 46.7196 45.9206 45.9225C46.7176 45.1255 47.1654 44.0445 47.1654 42.9173V37.2507C47.1654 36.8749 47.0161 36.5146 46.7504 36.2489C46.4848 35.9832 46.1244 35.834 45.7487 35.834ZM31.9929 38.2565C32.1276 38.3855 32.2865 38.4866 32.4604 38.554C32.6299 38.6289 32.8133 38.6676 32.9987 38.6676C33.1841 38.6676 33.3675 38.6289 33.537 38.554C33.7109 38.4866 33.8698 38.3855 34.0045 38.2565L39.6712 32.5898C39.938 32.3231 40.0878 31.9612 40.0878 31.584C40.0878 31.2067 39.938 30.8449 39.6712 30.5782C39.4044 30.3114 39.0426 30.1615 38.6654 30.1615C38.2881 30.1615 37.9263 30.3114 37.6595 30.5782L34.4154 33.8365V20.2507C34.4154 19.8749 34.2661 19.5146 34.0004 19.2489C33.7348 18.9832 33.3744 18.834 32.9987 18.834C32.623 18.834 32.2626 18.9832 31.997 19.2489C31.7313 19.5146 31.582 19.8749 31.582 20.2507V33.8365L28.3379 30.5782C28.2058 30.4461 28.049 30.3413 27.8764 30.2698C27.7038 30.1983 27.5188 30.1615 27.332 30.1615C27.1452 30.1615 26.9603 30.1983 26.7877 30.2698C26.6151 30.3413 26.4583 30.4461 26.3262 30.5782C26.1941 30.7102 26.0893 30.8671 26.0178 31.0396C25.9464 31.2122 25.9096 31.3972 25.9096 31.584C25.9096 31.7708 25.9464 31.9558 26.0178 32.1283C26.0893 32.3009 26.1941 32.4577 26.3262 32.5898L31.9929 38.2565Z" fill="#FDFDFD"/>
</svg>
