<svg width="66" height="66" viewBox="0 0 66 66" fill="none" xmlns="http://www.w3.org/2000/svg">
<circle cx="33" cy="33" r="33" fill="#5A90BF"/>
<path d="M28.3379 26.9219L31.582 23.6636V37.2494C31.582 37.6252 31.7313 37.9855 31.997 38.2512C32.2626 38.5169 32.623 38.6661 32.9987 38.6661C33.3744 38.6661 33.7348 38.5169 34.0004 38.2512C34.2661 37.9855 34.4154 37.6252 34.4154 37.2494V23.6636L37.6595 26.9219C37.7912 27.0547 37.9479 27.1601 38.1205 27.232C38.2932 27.304 38.4783 27.341 38.6654 27.341C38.8524 27.341 39.0375 27.304 39.2102 27.232C39.3828 27.1601 39.5395 27.0547 39.6712 26.9219C39.804 26.7902 39.9094 26.6336 39.9813 26.4609C40.0532 26.2883 40.0902 26.1031 40.0902 25.9161C40.0902 25.7291 40.0532 25.5439 39.9813 25.3713C39.9094 25.1987 39.804 25.042 39.6712 24.9103L34.0045 19.2436C33.8698 19.1146 33.7109 19.0135 33.537 18.9461C33.1921 18.8044 32.8053 18.8044 32.4604 18.9461C32.2865 19.0135 32.1276 19.1146 31.9929 19.2436L26.3262 24.9103C26.1941 25.0424 26.0893 25.1992 26.0178 25.3718C25.9464 25.5443 25.9096 25.7293 25.9096 25.9161C25.9096 26.1029 25.9464 26.2879 26.0178 26.4605C26.0893 26.633 26.1941 26.7899 26.3262 26.9219C26.4583 27.054 26.6151 27.1588 26.7877 27.2303C26.9603 27.3018 27.1452 27.3386 27.332 27.3386C27.5188 27.3386 27.7038 27.3018 27.8764 27.2303C28.049 27.1588 28.2058 27.054 28.3379 26.9219ZM45.7487 32.9994C45.373 32.9994 45.0126 33.1487 44.747 33.4144C44.4813 33.6801 44.332 34.0404 44.332 34.4161V42.9161C44.332 43.2918 44.1828 43.6522 43.9171 43.9178C43.6514 44.1835 43.2911 44.3328 42.9154 44.3328H23.082C22.7063 44.3328 22.346 44.1835 22.0803 43.9178C21.8146 43.6522 21.6654 43.2918 21.6654 42.9161V34.4161C21.6654 34.0404 21.5161 33.6801 21.2504 33.4144C20.9848 33.1487 20.6244 32.9994 20.2487 32.9994C19.873 32.9994 19.5126 33.1487 19.247 33.4144C18.9813 33.6801 18.832 34.0404 18.832 34.4161V42.9161C18.832 44.0433 19.2798 45.1243 20.0768 45.9213C20.8739 46.7183 21.9549 47.1661 23.082 47.1661H42.9154C44.0425 47.1661 45.1235 46.7183 45.9206 45.9213C46.7176 45.1243 47.1654 44.0433 47.1654 42.9161V34.4161C47.1654 34.0404 47.0161 33.6801 46.7504 33.4144C46.4848 33.1487 46.1244 32.9994 45.7487 32.9994Z" fill="#FDFDFD"/>
</svg>
