<svg width="66" height="66" viewBox="0 0 66 66" fill="none" xmlns="http://www.w3.org/2000/svg">
<circle cx="33" cy="33" r="33" fill="#5A90BF"/>
<g clip-path="url(#clip0_1857_181)">
<path d="M45.6846 30.6908C45.7322 30.6071 45.7657 30.5161 45.7838 30.4216L46.8463 24.7549C46.9139 24.3792 46.8295 23.992 46.6116 23.6785C46.3938 23.365 46.0603 23.1509 45.6846 23.0833C45.3089 23.0156 44.9217 23.1 44.6082 23.3179C44.2947 23.5357 44.0806 23.8692 44.0129 24.2449L43.4888 27.0783C42.3095 24.9248 40.5473 23.1473 38.404 21.9496C36.2608 20.7519 33.8234 20.1825 31.3714 20.3068C28.9193 20.431 26.552 21.2438 24.5408 22.652C22.5296 24.0601 20.956 26.0066 20.0004 28.2682C19.8603 28.6159 19.8636 29.0048 20.0096 29.35C20.1556 29.6952 20.4325 29.9685 20.7796 30.1099C20.9525 30.1815 21.1379 30.2181 21.325 30.2177C21.5122 30.2172 21.6974 30.1797 21.8699 30.1072C22.0425 30.0348 22.199 29.9289 22.3304 29.7956C22.4618 29.6623 22.5654 29.5043 22.6354 29.3308C23.3983 27.4562 24.7105 25.8563 26.3995 24.7413C28.0884 23.6263 30.0752 23.0483 32.0988 23.0833C33.8884 23.0749 35.6485 23.5396 37.2009 24.4302C38.7532 25.3208 40.0427 26.6057 40.9388 28.1549L38.6013 27.7724C38.4152 27.7427 38.2251 27.7498 38.0419 27.7935C37.8586 27.8372 37.6857 27.9166 37.5331 28.0271C37.3805 28.1376 37.2512 28.2771 37.1525 28.4375C37.0538 28.598 36.9877 28.7764 36.9579 28.9624C36.9282 29.1485 36.9353 29.3385 36.979 29.5218C37.0227 29.7051 37.1021 29.8779 37.2126 30.0305C37.3231 30.1831 37.4626 30.3125 37.623 30.4112C37.7835 30.5099 37.9619 30.576 38.1479 30.6058L44.1688 31.6116H44.3954C44.5599 31.6136 44.7232 31.5847 44.8771 31.5266C44.929 31.5069 44.977 31.4781 45.0188 31.4416C45.1203 31.4038 45.2158 31.3513 45.3021 31.2858L45.4154 31.1441C45.4889 31.0753 45.5553 30.9994 45.6138 30.9174C45.6482 30.8457 45.6721 30.7693 45.6846 30.6908ZM43.1629 35.9324C42.9891 35.8612 42.8029 35.8253 42.6151 35.8267C42.4273 35.8281 42.2417 35.8669 42.069 35.9407C41.8963 36.0145 41.74 36.1219 41.6092 36.2567C41.4784 36.3915 41.3757 36.5509 41.3071 36.7257C40.5388 38.5806 39.2316 40.1622 37.5546 41.2659C35.8775 42.3696 33.9079 42.9446 31.9004 42.9166C30.1108 42.9249 28.3507 42.4603 26.7983 41.5697C25.246 40.6791 23.9565 39.3941 23.0604 37.8449L25.3979 38.2274H25.6246C26.0003 38.2575 26.3726 38.137 26.6595 37.8926C26.9464 37.6482 27.1245 37.2998 27.1546 36.9241C27.1846 36.5484 27.0642 36.1761 26.8198 35.8892C26.5754 35.6022 26.227 35.4241 25.8513 35.3941L19.8304 34.4166C19.6759 34.3881 19.5175 34.3881 19.3629 34.4166H19.2496C19.0893 34.4592 18.9364 34.5261 18.7963 34.6149C18.7007 34.6887 18.615 34.7744 18.5413 34.8699L18.4138 35.0116C18.37 35.097 18.3367 35.1874 18.3146 35.2807C18.2649 35.3531 18.2312 35.4352 18.2154 35.5216L17.1529 41.1883C17.1074 41.3765 17.101 41.5721 17.1341 41.763C17.1672 41.9538 17.2391 42.1359 17.3453 42.2979C17.4515 42.4599 17.5898 42.5983 17.7516 42.7047C17.9135 42.8112 18.0954 42.8833 18.2863 42.9166H18.5413C18.8767 42.9221 19.2032 42.8083 19.4626 42.5956C19.7221 42.3828 19.8976 42.0849 19.9579 41.7549L20.4821 38.9216C21.6601 41.0755 23.4213 42.8539 25.5637 44.0528C27.7061 45.2516 30.143 45.8224 32.595 45.6996C35.047 45.5769 37.4147 44.7656 39.4267 43.3588C41.4387 41.952 43.0134 40.0066 43.9704 37.7458C44.1002 37.398 44.0884 37.0131 43.9374 36.674C43.7863 36.3349 43.5083 36.0686 43.1629 35.9324Z" fill="#FDFDFD"/>
</g>
<defs>
<clipPath id="clip0_1857_181">
<rect width="34" height="34" fill="white" transform="translate(15 16)"/>
</clipPath>
</defs>
</svg>
